# xmcd
#
# Track frame offsets: 
#        150
#        20268
#        38944
#        74715
#        104412
#        129341
#        144357
#        162540
#        179493
#        191353
#
# Disc length: 2763 seconds
#
# Revision: 4
# Processed by: cddbd v1.5.1PL0 Copyright (c) Steve Scherf et al.
# Submitted via: ExactAudioCopy v0.95a3
#
DISCID=8d0ac90a
DTITLE=Jagjit Singh and Chitra Singh - Dhai Din Na Jawani Naal Chaldi
DYEAR=1985
DGENRE=Punjabi Folk
TTITLE0=Dhai Din Na Jawani Naal Chaldi
TTITLE1=Charkha Mera Rangla
TTITLE2=Saun Da Mahina Yaro
TTITLE3=Tappe
TTITLE4=Sare Pind Ch Puare Paye
TTITLE5=Jaach Mainu Aa Gai Gham Khaan Di
TTITLE6=Yarariya Rab Kar Ke
TTITLE7=Tusi Kehri Rutte Aaye
TTITLE8=Eh Mera Geet Kise Na Gana
TTITLE9=Raat Gai Kar Tara Tara
EXTD=YEAR: 1985
EXTT0=
EXTT1=
EXTT2=
EXTT3=
EXTT4=
EXTT5=
EXTT6=
EXTT7=
EXTT8=
EXTT9=
PLAYORDER=
